<?xml version="1.0" encoding="iso-8859-1"?>
<!-- Generator: Adobe Illustrator 19.0.0, SVG Export Plug-In . SVG Version: 6.00 Build 0)  -->
<svg version="1.1" id="Capa_1" xmlns="http://www.w3.org/2000/svg" xmlns:xlink="http://www.w3.org/1999/xlink" x="0px" y="0px"
	 viewBox="0 0 512 512" style="enable-background:new 0 0 512 512;" xml:space="preserve">
<path style="fill:#B1EAD4;" d="M460,60v140h-40h-40h-40v-70c0-5.523,4.477-10,10-10h20c5.523,0,10,4.477,10,10V10
	c0-5.523,4.477-10,10-10h20c5.523,0,10,4.477,10,10v50c0-5.523,4.477-10,10-10h20C455.523,50,460,54.477,460,60z"/>
<path style="fill:#7CC3AC;" d="M460,60v140h-40h-40V10c0-5.523,4.477-10,10-10h20c5.523,0,10,4.477,10,10v50c0-5.523,4.477-10,10-10
	h20C455.523,50,460,54.477,460,60z"/>
<path style="fill:#4A7273;" d="M420,10v190h-40V10c0-5.523,4.477-10,10-10h20C415.523,0,420,4.477,420,10z"/>
<path style="fill:#61AE9F;" d="M460,60v140h-21.5V50H450C455.523,50,460,54.477,460,60z"/>
<path style="fill:#FE5E47;" d="M171.5,180v70h-40h-40h-40V130c0-5.523,4.477-10,10-10h20c5.523,0,10,4.477,10,10V60
	c0-5.523,4.477-10,10-10h20c5.523,0,10,4.477,10,10v120c0-5.523,4.477-10,10-10h20C167.023,170,171.5,174.477,171.5,180z"/>
<path style="fill:#DB3131;" d="M171.5,180v70h-40h-40V60c0-5.523,4.477-10,10-10h20c5.523,0,10,4.477,10,10v120
	c0-5.523,4.477-10,10-10h20C167.023,170,171.5,174.477,171.5,180z"/>
<path style="fill:#AF2B2B;" d="M171.5,180v70H150v-80h11.5C167.023,170,171.5,174.477,171.5,180z M121.5,50h-20
	c-5.523,0-10,4.477-10,10v190h40V60C131.5,54.477,127.023,50,121.5,50z"/>
<path style="fill:#C1C1C1;" d="M403.5,238v83.981c0,18.541-13.842,34.501-32.197,37.123l-231.414,33.06
	c-1.298,0.186-2.6,0.276-3.894,0.276c-6.577,0-12.979-2.359-18.014-6.726c-6.026-5.227-9.482-12.799-9.482-20.775V308
	c0-4.143,3.358-7.5,7.5-7.5s7.5,3.357,7.5,7.5v56.939c0,3.626,1.571,7.067,4.31,9.443s6.367,3.444,9.958,2.932l231.413-33.06
	c11.014-1.573,19.318-11.148,19.318-22.273V238c0-4.143,3.357-7.5,7.5-7.5S403.5,233.857,403.5,238z"/>
<path style="fill:#757575;" d="M272,364v126h-32V364c0-8.836,7.164-16,16-16C264.837,348,272,355.164,272,364z M203.5,250h-172
	c-5.523,0-10,4.477-10,10v18c0,17.673,14.327,32,32,32h128c17.673,0,32-14.327,32-32v-18C213.5,254.477,209.023,250,203.5,250z
	 M480.5,200h-172c-5.523,0-10,4.477-10,10v18c0,17.673,14.327,32,32,32h128c17.673,0,32-14.327,32-32v-18
	C490.5,204.477,486.023,200,480.5,200z"/>
<path style="fill:#606060;" d="M490.5,210v18c0,17.673-14.327,32-32,32H430c17.673,0,32-14.327,32-32v-18c0-5.523-4.477-10-10-10
	h28.5C486.023,200,490.5,204.477,490.5,210z M203.5,250H175c5.523,0,10,4.477,10,10v18c0,17.673-14.327,32-32,32h28.5
	c17.673,0,32-14.327,32-32v-18C213.5,254.477,209.023,250,203.5,250z"/>
<path style="fill:#AFAFAF;" d="M342,512H170c-5.523,0-10-4.477-10-10l0,0c0-17.673,14.327-32,32-32h128c17.673,0,32,14.327,32,32
	l0,0C352,507.523,347.523,512,342,512z"/>
<path style="fill:#A0A0A0;" d="M512,198v10c0,5.523-4.477,10-10,10H287c-5.523,0-10-4.477-10-10v-10c0-5.523,4.477-10,10-10h215
	C507.523,188,512,192.477,512,198z M225,238H10c-5.523,0-10,4.477-10,10v10c0,5.523,4.477,10,10,10h215c5.523,0,10-4.477,10-10v-10
	C235,242.477,230.523,238,225,238z M320,470h-18c11.046,0,20,8.954,20,20v22h20c5.523,0,10-4.477,10-10
	C352,484.327,337.673,470,320,470z"/>
<g>
</g>
<g>
</g>
<g>
</g>
<g>
</g>
<g>
</g>
<g>
</g>
<g>
</g>
<g>
</g>
<g>
</g>
<g>
</g>
<g>
</g>
<g>
</g>
<g>
</g>
<g>
</g>
<g>
</g>
</svg>
